<svg xmlns="http://www.w3.org/2000/svg" width="1200" height="700" viewBox="0 0 1200 700"><rect width="100%" height="100%" fill="white"/><style>text{font-family:Arial,"Noto Sans Thai",sans-serif;fill:#17283b}.title{font-size:32px;font-weight:700}.sub{font-size:17px;fill:#526476}.h{font-size:23px;font-weight:700}.label{font-size:17px;font-weight:700}.small{font-size:14px;fill:#526476}.tiny{font-size:12px;fill:#526476}.white{fill:#fff}.green{fill:#66a80f}.orange{fill:#e8590c}.red{fill:#c92a2a}.blue{fill:#1971c2}.grid{stroke:#dce3e8;stroke-width:1}.axis{stroke:#71808e;stroke-width:1.5}.card{fill:#f8fafb;stroke:#d7dfe5;stroke-width:1.5}.warn{fill:#fff4e6;stroke:#ffa94d;stroke-width:1.5}</style><text x="38" y="50" class="title">Tilt limitation · pointing gain is recoverable, obstruction is not</text><text x="38" y="80" class="sub">Headroom after 3 dB reserve · installed result includes current hull/travel/packaging gates</text><rect x="38" y="108" width="1124" height="545" rx="12" class="card"/><line x1="82" y1="520.4166666666666" x2="1130" y2="520.4166666666666" class="grid"/><text x="65" y="525.4166666666666" class="small" text-anchor="end">-15</text><line x1="82" y1="447.5" x2="1130" y2="447.5" class="grid"/><text x="65" y="452.5" class="small" text-anchor="end">-10</text><line x1="82" y1="374.58333333333337" x2="1130" y2="374.58333333333337" class="grid"/><text x="65" y="379.58333333333337" class="small" text-anchor="end">-5</text><line x1="82" y1="301.6666666666667" x2="1130" y2="301.6666666666667" class="grid"/><text x="65" y="306.6666666666667" class="small" text-anchor="end">0</text><line x1="82" y1="228.75" x2="1130" y2="228.75" class="grid"/><text x="65" y="233.75" class="small" text-anchor="end">5</text><line x1="82" y1="185" x2="82" y2="535" class="grid"/><text x="82" y="562" class="small" text-anchor="middle">0°</text><line x1="256.66666666666663" y1="185" x2="256.66666666666663" y2="535" class="grid"/><text x="256.66666666666663" y="562" class="small" text-anchor="middle">15°</text><line x1="431.3333333333333" y1="185" x2="431.3333333333333" y2="535" class="grid"/><text x="431.3333333333333" y="562" class="small" text-anchor="middle">30°</text><line x1="606" y1="185" x2="606" y2="535" class="grid"/><text x="606" y="562" class="small" text-anchor="middle">45°</text><line x1="780.6666666666666" y1="185" x2="780.6666666666666" y2="535" class="grid"/><text x="780.6666666666666" y="562" class="small" text-anchor="middle">60°</text><line x1="955.3333333333334" y1="185" x2="955.3333333333334" y2="535" class="grid"/><text x="955.3333333333334" y="562" class="small" text-anchor="middle">75°</text><line x1="1130" y1="185" x2="1130" y2="535" class="grid"/><text x="1130" y="562" class="small" text-anchor="middle">90°</text><line x1="82" y1="301.6666666666667" x2="1130" y2="301.6666666666667" stroke="#c92a2a" stroke-width="2" stroke-dasharray="8 6"/><path d="M82.0,220.6 L140.2,221.2 L198.4,223.0 L256.7,226.0 L314.9,230.2 L373.1,235.8 L431.3,242.8 L489.6,251.4 L547.8,261.7 L606.0,274.1 L664.2,288.8 L722.4,306.3 L780.7,327.5 L838.9,353.4 L897.1,386.0 L955.3,429.0 L1013.6,490.5 L1071.8,535.0 L1130.0,535.0" fill="none" stroke="#e8590c" stroke-width="6"/><path d="M82.0,220.6 L140.2,220.6 L198.4,220.6 L256.7,220.6 L314.9,220.6 L373.1,220.6 L431.3,220.6 L489.6,220.6 L547.8,220.6 L606.0,220.6 L664.2,220.6 L722.4,220.6 L780.7,220.6 L838.9,220.6 L897.1,220.6 L955.3,220.6 L1013.6,220.6 L1071.8,220.6 L1130.0,220.6" fill="none" stroke="#66a80f" stroke-width="6"/><circle cx="82" cy="220.63324839195775" r="5" fill="#1971c2"/><circle cx="140.22222222222223" cy="220.63384215441846" r="5" fill="#1971c2"/><circle cx="198.44444444444446" cy="220.63408395816884" r="5" fill="#1971c2"/><circle cx="256.66666666666663" cy="220.63458924388038" r="5" fill="#1971c2"/><circle cx="314.8888888888889" cy="220.6349422615237" r="5" fill="#1971c2"/><circle cx="373.11111111111114" cy="220.6349348735875" r="5" fill="#1971c2"/><circle cx="431.3333333333333" cy="220.6349902780609" r="5" fill="#1971c2"/><circle cx="489.55555555555554" cy="220.63505445450392" r="5" fill="#1971c2"/><circle cx="547.7777777777778" cy="220.63504037144446" r="5" fill="#1971c2"/><circle cx="606" cy="220.63517567694402" r="5" fill="#1971c2"/><text x="670" y="145" class="label orange">— Fixed</text><text x="805" y="145" class="label green">— Gimbal clear-path</text><text x="1025" y="145" class="label blue">● Installed pass</text><rect x="77" y="575" width="56.22222222222222" height="35" fill="#d3f9d8"><title>0°: CLEAR</title></rect><rect x="135.22222222222223" y="575" width="56.22222222222222" height="35" fill="#d3f9d8"><title>5°: CLEAR</title></rect><rect x="193.44444444444446" y="575" width="56.22222222222222" height="35" fill="#d3f9d8"><title>10°: CLEAR</title></rect><rect x="251.66666666666663" y="575" width="56.22222222222222" height="35" fill="#d3f9d8"><title>15°: CLEAR</title></rect><rect x="309.8888888888889" y="575" width="56.22222222222222" height="35" fill="#d3f9d8"><title>20°: CLEAR</title></rect><rect x="368.11111111111114" y="575" width="56.22222222222222" height="35" fill="#d3f9d8"><title>25°: CLEAR</title></rect><rect x="426.3333333333333" y="575" width="56.22222222222222" height="35" fill="#d3f9d8"><title>30°: CLEAR</title></rect><rect x="484.55555555555554" y="575" width="56.22222222222222" height="35" fill="#d3f9d8"><title>35°: CLEAR</title></rect><rect x="542.7777777777778" y="575" width="56.22222222222222" height="35" fill="#d3f9d8"><title>40°: CLEAR</title></rect><rect x="601" y="575" width="56.22222222222222" height="35" fill="#d3f9d8"><title>45°: CLEAR</title></rect><rect x="659.2222222222223" y="575" width="56.22222222222222" height="35" fill="#ffe8cc"><title>50°: LANDER HULL</title></rect><rect x="717.4444444444445" y="575" width="56.22222222222222" height="35" fill="#ffe8cc"><title>55°: LANDER HULL</title></rect><rect x="775.6666666666666" y="575" width="56.22222222222222" height="35" fill="#ffe8cc"><title>60°: LANDER HULL</title></rect><rect x="833.8888888888889" y="575" width="56.22222222222222" height="35" fill="#ffe8cc"><title>65°: LANDER HULL</title></rect><rect x="892.1111111111111" y="575" width="56.22222222222222" height="35" fill="#ffe8cc"><title>70°: LANDER HULL</title></rect><rect x="950.3333333333334" y="575" width="56.22222222222222" height="35" fill="#ffe8cc"><title>75°: LANDER HULL</title></rect><rect x="1008.5555555555555" y="575" width="56.22222222222222" height="35" fill="#ffe8cc"><title>80°: LANDER HULL</title></rect><rect x="1066.7777777777778" y="575" width="56.22222222222222" height="35" fill="#ffe8cc"><title>85°: LANDER HULL</title></rect><rect x="1125" y="575" width="56.22222222222222" height="35" fill="#ffe8cc"><title>90°: LANDER HULL</title></rect><text x="82" y="637" class="small">Green strip = clear installed geometry · orange strip = hull/travel/packaging gate prevents a usable installed link</text><text x="610" y="686" class="label" text-anchor="middle">Final lander pitch magnitude (deg)</text></svg>