<svg xmlns="http://www.w3.org/2000/svg" width="1200" height="700" viewBox="0 0 1200 700"><rect width="100%" height="100%" fill="white"/><style>text{font-family:Arial,"Noto Sans Thai",sans-serif;fill:#17283b}.title{font-size:32px;font-weight:700}.sub{font-size:17px;fill:#526476}.h{font-size:23px;font-weight:700}.label{font-size:17px;font-weight:700}.small{font-size:14px;fill:#526476}.tiny{font-size:12px;fill:#526476}.white{fill:#fff}.green{fill:#66a80f}.orange{fill:#e8590c}.red{fill:#c92a2a}.blue{fill:#1971c2}.grid{stroke:#dce3e8;stroke-width:1}.axis{stroke:#71808e;stroke-width:1.5}.card{fill:#f8fafb;stroke:#d7dfe5;stroke-width:1.5}.warn{fill:#fff4e6;stroke:#ffa94d;stroke-width:1.5}</style><text x="38" y="50" class="title">Failure-gate matrix · what the gimbal cannot fix</text><text x="38" y="80" class="sub">Final state of deterministic presets · a usable link requires every column to pass</text><text x="308.5" y="125" class="label" text-anchor="middle">Earth</text><text x="430.5" y="125" class="label" text-anchor="middle">LOS</text><text x="552.5" y="125" class="label" text-anchor="middle">Travel / fit</text><text x="674.5" y="125" class="label" text-anchor="middle">Mechanism</text><text x="796.5" y="125" class="label" text-anchor="middle">DC + RF</text><text x="918.5" y="125" class="label" text-anchor="middle">Final link</text><text x="55" y="181" class="label">nominal</text><rect x="250" y="150" width="117" height="47" rx="7" fill="#66a80f"/><text x="308.5" y="181" class="label white" text-anchor="middle">PASS</text><rect x="372" y="150" width="117" height="47" rx="7" fill="#66a80f"/><text x="430.5" y="181" class="label white" text-anchor="middle">PASS</text><rect x="494" y="150" width="117" height="47" rx="7" fill="#66a80f"/><text x="552.5" y="181" class="label white" text-anchor="middle">PASS</text><rect x="616" y="150" width="117" height="47" rx="7" fill="#66a80f"/><text x="674.5" y="181" class="label white" text-anchor="middle">PASS</text><rect x="738" y="150" width="117" height="47" rx="7" fill="#66a80f"/><text x="796.5" y="181" class="label white" text-anchor="middle">PASS</text><rect x="860" y="150" width="117" height="47" rx="7" fill="#66a80f"/><text x="918.5" y="181" class="label white" text-anchor="middle">PASS</text><text x="1084" y="181" class="tiny" text-anchor="middle">—</text><text x="55" y="233" class="label">65° tilt</text><rect x="250" y="202" width="117" height="47" rx="7" fill="#66a80f"/><text x="308.5" y="233" class="label white" text-anchor="middle">PASS</text><rect x="372" y="202" width="117" height="47" rx="7" fill="#c92a2a"/><text x="430.5" y="233" class="label white" text-anchor="middle">FAIL</text><rect x="494" y="202" width="117" height="47" rx="7" fill="#66a80f"/><text x="552.5" y="233" class="label white" text-anchor="middle">PASS</text><rect x="616" y="202" width="117" height="47" rx="7" fill="#66a80f"/><text x="674.5" y="233" class="label white" text-anchor="middle">PASS</text><rect x="738" y="202" width="117" height="47" rx="7" fill="#66a80f"/><text x="796.5" y="233" class="label white" text-anchor="middle">PASS</text><rect x="860" y="202" width="117" height="47" rx="7" fill="#c92a2a"/><text x="918.5" y="233" class="label white" text-anchor="middle">FAIL</text><text x="1084" y="233" class="tiny" text-anchor="middle">LANDER HULL</text><text x="55" y="285" class="label">shock</text><rect x="250" y="254" width="117" height="47" rx="7" fill="#66a80f"/><text x="308.5" y="285" class="label white" text-anchor="middle">PASS</text><rect x="372" y="254" width="117" height="47" rx="7" fill="#66a80f"/><text x="430.5" y="285" class="label white" text-anchor="middle">PASS</text><rect x="494" y="254" width="117" height="47" rx="7" fill="#66a80f"/><text x="552.5" y="285" class="label white" text-anchor="middle">PASS</text><rect x="616" y="254" width="117" height="47" rx="7" fill="#66a80f"/><text x="674.5" y="285" class="label white" text-anchor="middle">PASS</text><rect x="738" y="254" width="117" height="47" rx="7" fill="#66a80f"/><text x="796.5" y="285" class="label white" text-anchor="middle">PASS</text><rect x="860" y="254" width="117" height="47" rx="7" fill="#66a80f"/><text x="918.5" y="285" class="label white" text-anchor="middle">PASS</text><text x="1084" y="285" class="tiny" text-anchor="middle">—</text><text x="55" y="337" class="label">jam</text><rect x="250" y="306" width="117" height="47" rx="7" fill="#66a80f"/><text x="308.5" y="337" class="label white" text-anchor="middle">PASS</text><rect x="372" y="306" width="117" height="47" rx="7" fill="#c92a2a"/><text x="430.5" y="337" class="label white" text-anchor="middle">FAIL</text><rect x="494" y="306" width="117" height="47" rx="7" fill="#66a80f"/><text x="552.5" y="337" class="label white" text-anchor="middle">PASS</text><rect x="616" y="306" width="117" height="47" rx="7" fill="#c92a2a"/><text x="674.5" y="337" class="label white" text-anchor="middle">FAIL</text><rect x="738" y="306" width="117" height="47" rx="7" fill="#66a80f"/><text x="796.5" y="337" class="label white" text-anchor="middle">PASS</text><rect x="860" y="306" width="117" height="47" rx="7" fill="#c92a2a"/><text x="918.5" y="337" class="label white" text-anchor="middle">FAIL</text><text x="1084" y="337" class="tiny" text-anchor="middle">ACTUATOR JAM</text><text x="55" y="389" class="label">limit</text><rect x="250" y="358" width="117" height="47" rx="7" fill="#66a80f"/><text x="308.5" y="389" class="label white" text-anchor="middle">PASS</text><rect x="372" y="358" width="117" height="47" rx="7" fill="#66a80f"/><text x="430.5" y="389" class="label white" text-anchor="middle">PASS</text><rect x="494" y="358" width="117" height="47" rx="7" fill="#c92a2a"/><text x="552.5" y="389" class="label white" text-anchor="middle">FAIL</text><rect x="616" y="358" width="117" height="47" rx="7" fill="#66a80f"/><text x="674.5" y="389" class="label white" text-anchor="middle">PASS</text><rect x="738" y="358" width="117" height="47" rx="7" fill="#66a80f"/><text x="796.5" y="389" class="label white" text-anchor="middle">PASS</text><rect x="860" y="358" width="117" height="47" rx="7" fill="#c92a2a"/><text x="918.5" y="389" class="label white" text-anchor="middle">FAIL</text><text x="1084" y="389" class="tiny" text-anchor="middle">TRAVEL / PACKAGE</text><text x="55" y="441" class="label">side</text><rect x="250" y="410" width="117" height="47" rx="7" fill="#66a80f"/><text x="308.5" y="441" class="label white" text-anchor="middle">PASS</text><rect x="372" y="410" width="117" height="47" rx="7" fill="#66a80f"/><text x="430.5" y="441" class="label white" text-anchor="middle">PASS</text><rect x="494" y="410" width="117" height="47" rx="7" fill="#66a80f"/><text x="552.5" y="441" class="label white" text-anchor="middle">PASS</text><rect x="616" y="410" width="117" height="47" rx="7" fill="#66a80f"/><text x="674.5" y="441" class="label white" text-anchor="middle">PASS</text><rect x="738" y="410" width="117" height="47" rx="7" fill="#66a80f"/><text x="796.5" y="441" class="label white" text-anchor="middle">PASS</text><rect x="860" y="410" width="117" height="47" rx="7" fill="#66a80f"/><text x="918.5" y="441" class="label white" text-anchor="middle">PASS</text><text x="1084" y="441" class="tiny" text-anchor="middle">—</text><text x="55" y="493" class="label">nose</text><rect x="250" y="462" width="117" height="47" rx="7" fill="#66a80f"/><text x="308.5" y="493" class="label white" text-anchor="middle">PASS</text><rect x="372" y="462" width="117" height="47" rx="7" fill="#c92a2a"/><text x="430.5" y="493" class="label white" text-anchor="middle">FAIL</text><rect x="494" y="462" width="117" height="47" rx="7" fill="#66a80f"/><text x="552.5" y="493" class="label white" text-anchor="middle">PASS</text><rect x="616" y="462" width="117" height="47" rx="7" fill="#66a80f"/><text x="674.5" y="493" class="label white" text-anchor="middle">PASS</text><rect x="738" y="462" width="117" height="47" rx="7" fill="#66a80f"/><text x="796.5" y="493" class="label white" text-anchor="middle">PASS</text><rect x="860" y="462" width="117" height="47" rx="7" fill="#c92a2a"/><text x="918.5" y="493" class="label white" text-anchor="middle">FAIL</text><text x="1084" y="493" class="tiny" text-anchor="middle">LANDER HULL</text><text x="55" y="545" class="label">inverted</text><rect x="250" y="514" width="117" height="47" rx="7" fill="#66a80f"/><text x="308.5" y="545" class="label white" text-anchor="middle">PASS</text><rect x="372" y="514" width="117" height="47" rx="7" fill="#c92a2a"/><text x="430.5" y="545" class="label white" text-anchor="middle">FAIL</text><rect x="494" y="514" width="117" height="47" rx="7" fill="#66a80f"/><text x="552.5" y="545" class="label white" text-anchor="middle">PASS</text><rect x="616" y="514" width="117" height="47" rx="7" fill="#66a80f"/><text x="674.5" y="545" class="label white" text-anchor="middle">PASS</text><rect x="738" y="514" width="117" height="47" rx="7" fill="#66a80f"/><text x="796.5" y="545" class="label white" text-anchor="middle">PASS</text><rect x="860" y="514" width="117" height="47" rx="7" fill="#c92a2a"/><text x="918.5" y="545" class="label white" text-anchor="middle">FAIL</text><text x="1084" y="545" class="tiny" text-anchor="middle">GROUND CONTACT / BURIED</text><text x="55" y="597" class="label">blackout</text><rect x="250" y="566" width="117" height="47" rx="7" fill="#66a80f"/><text x="308.5" y="597" class="label white" text-anchor="middle">PASS</text><rect x="372" y="566" width="117" height="47" rx="7" fill="#c92a2a"/><text x="430.5" y="597" class="label white" text-anchor="middle">FAIL</text><rect x="494" y="566" width="117" height="47" rx="7" fill="#66a80f"/><text x="552.5" y="597" class="label white" text-anchor="middle">PASS</text><rect x="616" y="566" width="117" height="47" rx="7" fill="#66a80f"/><text x="674.5" y="597" class="label white" text-anchor="middle">PASS</text><rect x="738" y="566" width="117" height="47" rx="7" fill="#c92a2a"/><text x="796.5" y="597" class="label white" text-anchor="middle">FAIL</text><rect x="860" y="566" width="117" height="47" rx="7" fill="#c92a2a"/><text x="918.5" y="597" class="label white" text-anchor="middle">FAIL</text><text x="1084" y="597" class="tiny" text-anchor="middle">LANDER DC / PAYLOAD RF</text><text x="1084" y="125" class="label" text-anchor="middle">Dominant indication</text><rect x="38" y="640" width="1124" height="42" rx="8" class="warn"/><text x="58" y="666" class="small">These presets expose failure modes; they are not probabilities and do not reconstruct a specific landing.</text></svg>