<svg xmlns="http://www.w3.org/2000/svg" width="1200" height="580" viewBox="0 0 1200 580"><rect width="100%" height="100%" fill="white"/><style>text{font-family:Arial,"Noto Sans Thai",sans-serif;fill:#17283b}.title{font-size:32px;font-weight:700}.sub{font-size:17px;fill:#526476}.h{font-size:23px;font-weight:700}.label{font-size:17px;font-weight:700}.small{font-size:14px;fill:#526476}.white{fill:#fff}.green{fill:#66a80f}.orange{fill:#e8590c}.red{fill:#c92a2a}.blue{fill:#1971c2}.grid{stroke:#dce3e8;stroke-width:1}.card{fill:#f8fafb;stroke:#d7dfe5;stroke-width:1.5}.warn{fill:#fff4e6;stroke:#ffa94d;stroke-width:1.5}</style><text x="34" y="39" class="title">OUR ANALYSIS · EARTH–MOON RF EVIDENCE</text><text x="34" y="68" class="sub">S-band 2.205 GHz · 384,400 km · 5 W RF · 6.5 dBic · 4 kbps · G/T 22 dB/K assumed</text>
  <rect x="34" y="88" width="250" height="56" rx="9" class="card"/><text x="51" y="111" class="small">EARTH–MOON FSPL</text><text x="266" y="128" class="h" text-anchor="end">211.01 dB</text>
  <rect x="296" y="88" width="250" height="56" rx="9" class="card"/><text x="313" y="111" class="small">EIRP</text><text x="528" y="128" class="h" text-anchor="end">12.49 dBW</text>
  <rect x="558" y="88" width="262" height="56" rx="9" class="card"/><text x="575" y="111" class="small">PASS BOUNDARY</text><text x="802" y="128" class="h" text-anchor="end">0 dB after reserve</text>
  <line x1="76" y1="425.45454545454544" x2="820" y2="425.45454545454544" class="grid"/><text x="61" y="430.45454545454544" class="small" text-anchor="end">-12</text><line x1="76" y1="345.8181818181818" x2="820" y2="345.8181818181818" class="grid"/><text x="61" y="350.8181818181818" class="small" text-anchor="end">-6</text><line x1="76" y1="266.1818181818182" x2="820" y2="266.1818181818182" class="grid"/><text x="61" y="271.1818181818182" class="small" text-anchor="end">0</text><line x1="76" y1="186.54545454545456" x2="820" y2="186.54545454545456" class="grid"/><text x="61" y="191.54545454545456" class="small" text-anchor="end">6</text><line x1="76" y1="160" x2="76" y2="452" class="grid"/><text x="76" y="478" class="small" text-anchor="middle">0°</text><line x1="262" y1="160" x2="262" y2="452" class="grid"/><text x="262" y="478" class="small" text-anchor="middle">20°</text><line x1="448" y1="160" x2="448" y2="452" class="grid"/><text x="448" y="478" class="small" text-anchor="middle">40°</text><line x1="634" y1="160" x2="634" y2="452" class="grid"/><text x="634" y="478" class="small" text-anchor="middle">60°</text><line x1="820" y1="160" x2="820" y2="452" class="grid"/><text x="820" y="478" class="small" text-anchor="middle">80°</text><line x1="76" y1="266.1818181818182" x2="820" y2="266.1818181818182" stroke="#c92a2a" stroke-width="2" stroke-dasharray="8 6"/><path d="M76.0,192.4 L94.6,192.5 L113.2,192.8 L131.8,193.2 L150.4,193.8 L169.0,194.6 L187.6,195.5 L206.2,196.7 L224.8,198.0 L243.4,199.5 L262.0,201.2 L280.6,203.0 L299.2,205.1 L317.8,207.4 L336.4,209.9 L355.0,212.6 L373.6,215.6 L392.2,218.7 L410.8,222.2 L429.4,225.9 L448.0,229.8 L466.6,234.1 L485.2,238.6 L503.8,243.5 L522.4,248.8 L541.0,254.4 L559.6,260.5 L578.2,267.0 L596.8,274.0 L615.4,281.5 L634.0,289.7 L652.6,298.5 L671.2,308.1 L689.8,318.6 L708.4,330.2 L727.0,343.0 L745.6,357.2 L764.2,373.2 L782.8,391.5 L801.4,412.8 L820.0,438.1" fill="none" stroke="#e8590c" stroke-width="6"/><path d="M76.0,192.4 L94.6,192.4 L113.2,192.4 L131.8,192.4 L150.4,192.4 L169.0,192.4 L187.6,192.4 L206.2,192.4 L224.8,192.4 L243.4,192.4 L262.0,192.4 L280.6,192.4 L299.2,192.4 L317.8,192.4 L336.4,192.4 L355.0,192.4 L373.6,192.4 L392.2,192.4 L410.8,192.4 L429.4,192.4 L448.0,192.4 L466.6,192.4 L485.2,192.4 L503.8,192.4 L522.4,192.4 L541.0,192.4 L559.6,192.4 L578.2,192.4 L596.8,192.4 L615.4,192.4 L634.0,192.4 L652.6,192.4 L671.2,192.4 L689.8,192.4 L708.4,192.4 L727.0,192.4 L745.6,192.4 L764.2,192.4 L782.8,192.4 L801.4,192.4 L820.0,192.4" fill="none" stroke="#66a80f" stroke-width="6"/><circle cx="680.5" cy="313.272133122893" r="7" fill="#e8590c"/><circle cx="680.5" cy="192.4299918163888" r="7" fill="#66a80f"/><text x="85" y="181" class="small">Headroom after 3 dB reserve (dB)</text><text x="448" y="512" class="small" text-anchor="middle">Lander tilt / fixed-antenna mispointing</text>
  <rect x="850" y="88" width="316" height="424" rx="12" class="card"/><text x="876" y="128" class="h">FIXED vs GIMBALLED</text><text x="876" y="158" class="small">Concept comparison at 65° tilt</text><line x1="876" y1="181" x2="1140" y2="181" class="grid"/>
  <text x="876" y="219" class="label orange">FIXED PATCH</text><text x="876" y="260" class="h orange">−3.55 dB</text><text x="876" y="287" class="small">after reserve · FAIL</text><line x1="876" y1="311" x2="1140" y2="311" class="grid"/>
  <text x="876" y="350" class="label green">GIMBAL ON-AXIS</text><text x="876" y="391" class="h green">+5.56 dB</text><text x="876" y="418" class="small">after reserve · PASS*</text><text x="876" y="458" class="small">Recovered headroom: +9.11 dB</text><text x="876" y="488" class="small">*Clear-path RF budget only</text>
  <rect x="34" y="530" width="1132" height="38" rx="8" class="warn"/><text x="600" y="555" class="small" text-anchor="middle">Installed 65° green-zone case is HULL-BLOCKED · mount/FOV optimization is still required.</text></svg>