<svg xmlns="http://www.w3.org/2000/svg" width="1200" height="700" viewBox="0 0 1200 700"><rect width="100%" height="100%" fill="white"/><defs><marker id="arrow" viewBox="0 0 10 10" refX="5" refY="5" markerWidth="6" markerHeight="6" orient="auto-start-reverse"><path d="M0,0 L10,5 L0,10 z" fill="#495763"/></marker></defs><style>text{font-family:Arial,"Noto Sans Thai",sans-serif;fill:#17283b}.title{font-size:30px;font-weight:700}.sub{font-size:15px;fill:#586a7a}.h{font-size:20px;font-weight:700}.label{font-size:14px;font-weight:700}.small{font-size:12px;fill:#586a7a}.tiny{font-size:10px;fill:#586a7a}.card{fill:#fff;stroke:#d3dce3;stroke-width:1.5}.dim{stroke:#495763;stroke-width:1.5;marker-start:url(#arrow);marker-end:url(#arrow)}.ext{stroke:#9aa8b3;stroke-width:1}.grid{stroke:#dfe5ea;stroke-width:1}.req{stroke:#7b8794;stroke-width:2;stroke-dasharray:8 6}</style><text x="34" y="46" class="title">REFERENCE PATCH · S-PARAMETERS VS FREQUENCY</text><text x="34" y="72" class="sub">ANSER QM isolated antenna · Figure 10 visual digitization · use as design precedent, not as mounted lander measurement</text><rect x="28" y="88" width="1144" height="500" rx="12" class="card"/><rect x="410.5000000000003" y="115" width="51.75000000000006" height="405" fill="#1971c2" opacity=".10"/><text x="436.37500000000034" y="133" class="tiny" text-anchor="middle">2.03 ± 0.01</text><rect x="824.5000000000007" y="115" width="129.37499999999955" height="405" fill="#2f9e44" opacity=".10"/><text x="889.1875000000005" y="133" class="tiny" text-anchor="middle">2.205 ± 0.025</text><line x1="100" y1="115" x2="100" y2="520" class="grid"/><text x="100" y="542" class="small" text-anchor="middle">1.90</text><line x1="229.3750000000001" y1="115" x2="229.3750000000001" y2="520" class="grid"/><text x="229.3750000000001" y="542" class="small" text-anchor="middle">1.95</text><line x1="358.7500000000002" y1="115" x2="358.7500000000002" y2="520" class="grid"/><text x="358.7500000000002" y="542" class="small" text-anchor="middle">2.00</text><line x1="488.1249999999998" y1="115" x2="488.1249999999998" y2="520" class="grid"/><text x="488.1249999999998" y="542" class="small" text-anchor="middle">2.05</text><line x1="617.5000000000005" y1="115" x2="617.5000000000005" y2="520" class="grid"/><text x="617.5000000000005" y="542" class="small" text-anchor="middle">2.10</text><line x1="746.875" y1="115" x2="746.875" y2="520" class="grid"/><text x="746.875" y="542" class="small" text-anchor="middle">2.15</text><line x1="876.2500000000007" y1="115" x2="876.2500000000007" y2="520" class="grid"/><text x="876.2500000000007" y="542" class="small" text-anchor="middle">2.20</text><line x1="1005.6250000000002" y1="115" x2="1005.6250000000002" y2="520" class="grid"/><text x="1005.6250000000002" y="542" class="small" text-anchor="middle">2.25</text><line x1="1134.9999999999998" y1="115" x2="1134.9999999999998" y2="520" class="grid"/><text x="1134.9999999999998" y="542" class="small" text-anchor="middle">2.30</text><line x1="100" y1="115" x2="1135" y2="115" class="grid"/><text x="88" y="119" class="small" text-anchor="end">0</text><line x1="100" y1="182.5" x2="1135" y2="182.5" class="grid"/><text x="88" y="186.5" class="small" text-anchor="end">-5</text><line x1="100" y1="250" x2="1135" y2="250" class="grid"/><text x="88" y="254" class="small" text-anchor="end">-10</text><line x1="100" y1="277" x2="1135" y2="277" class="grid"/><text x="88" y="281" class="small" text-anchor="end">-12</text><line x1="100" y1="317.5" x2="1135" y2="317.5" class="grid"/><text x="88" y="321.5" class="small" text-anchor="end">-15</text><line x1="100" y1="385" x2="1135" y2="385" class="grid"/><text x="88" y="389" class="small" text-anchor="end">-20</text><line x1="100" y1="452.5" x2="1135" y2="452.5" class="grid"/><text x="88" y="456.5" class="small" text-anchor="end">-25</text><line x1="100" y1="520" x2="1135" y2="520" class="grid"/><text x="88" y="524" class="small" text-anchor="end">-30</text><line x1="100" y1="277" x2="1135" y2="277" class="req"/><text x="1130" y="270" class="label" text-anchor="end">requirement ≤ −12 dB</text><path d="M100.0,202.8 L164.7,229.8 L229.4,256.8 L294.1,272.9 L358.8,272.9 L423.4,270.3 L488.1,267.6 L552.8,267.6 L617.5,267.6 L682.2,268.9 L746.9,270.3 L811.6,277.0 L876.3,313.4 L902.1,328.3 L928.0,340.4 L953.9,344.5 L979.8,333.7 L1005.6,299.9 L1070.3,212.2 L1135.0,179.8" fill="none" stroke="#1971c2" stroke-width="3"/><path d="M100.0,213.6 L164.7,233.8 L229.4,256.8 L294.1,272.9 L358.8,272.9 L423.4,270.3 L488.1,267.6 L552.8,267.6 L617.5,267.6 L682.2,268.9 L746.9,270.3 L811.6,277.0 L876.3,317.5 L902.1,337.8 L928.0,353.9 L953.9,349.9 L979.8,328.3 L1005.6,283.8 L1070.3,225.7 L1135.0,185.2" fill="none" stroke="#e03131" stroke-width="3"/><path d="M100.0,200.1 L164.7,223.0 L229.4,259.4 L294.1,290.5 L358.8,291.9 L423.4,287.8 L488.1,285.1 L552.8,285.1 L617.5,283.8 L682.2,285.1 L746.9,287.8 L811.6,297.3 L876.3,328.3 L902.1,340.4 L928.0,341.8 L953.9,320.2 L979.8,285.1 L1005.6,252.7 L1070.3,196.0 L1135.0,173.1" fill="none" stroke="#1971c2" stroke-width="3" stroke-dasharray="9 6"/><path d="M100.0,209.5 L164.7,224.3 L229.4,258.1 L294.1,287.8 L358.8,293.2 L423.4,290.5 L488.1,289.1 L552.8,290.5 L617.5,291.9 L682.2,293.2 L746.9,294.6 L811.6,301.3 L876.3,333.7 L902.1,351.3 L928.0,358.0 L953.9,344.5 L979.8,308.1 L1005.6,263.5 L1070.3,198.7 L1135.0,175.8" fill="none" stroke="#e03131" stroke-width="3" stroke-dasharray="9 6"/><line x1="889.1875000000005" y1="115" x2="889.1875000000005" y2="520" stroke="#2f9e44" stroke-width="2" stroke-dasharray="4 4"/><text x="896.1875000000005" y="157" class="label" fill="#2f9e44">our study point 2.205 GHz</text><line x1="145" y1="555" x2="185" y2="555" stroke="#1971c2" stroke-width="3"/><text x="194" y="560" class="small">S11 Port 1 simulation</text><line x1="355" y1="555" x2="395" y2="555" stroke="#e03131" stroke-width="3"/><text x="404" y="560" class="small">S22 Port 2 simulation</text><line x1="590" y1="555" x2="630" y2="555" stroke="#1971c2" stroke-width="3" stroke-dasharray="9 6"/><text x="639" y="560" class="small">S11 Port 1 measured</text><line x1="820" y1="555" x2="860" y2="555" stroke="#e03131" stroke-width="3" stroke-dasharray="9 6"/><text x="869" y="560" class="small">S22 Port 2 measured</text><text x="617" y="590" class="label" text-anchor="middle">Frequency (GHz)</text><text x="23" y="318" class="label" text-anchor="middle" transform="rotate(-90 23 318)">S-parameter magnitude (dB)</text><rect x="28" y="610" width="1144" height="54" rx="8" fill="#fff4e6" stroke="#ffa94d"/><text x="600" y="634" class="label" text-anchor="middle">Do not label this as “our measured S11”.</text><text x="600" y="653" class="small" text-anchor="middle">Before final design release: CST/HFSS with gimbal + lander deck, then calibrated VNA sweep at the antenna connector after thermal-vacuum exposure.</text><text x="600" y="690" class="tiny" text-anchor="middle">Approximate curve points transcribed from Sánchez-Sevilleja et al., Sensors 2025, Figure 10 · DOI 10.3390/s25041237 · CC BY 4.0</text></svg>